<?xml version="1.0" encoding="UTF-8" standalone="no"?>
<!-- Generator: Adobe Illustrator 16.0.0, SVG Export Plug-In . SVG Version: 6.00 Build 0)  -->

<svg
   xmlns:dc="http://purl.org/dc/elements/1.1/"
   xmlns:cc="http://creativecommons.org/ns#"
   xmlns:rdf="http://www.w3.org/1999/02/22-rdf-syntax-ns#"
   xmlns:svg="http://www.w3.org/2000/svg"
   xmlns="http://www.w3.org/2000/svg"
   xmlns:sodipodi="http://sodipodi.sourceforge.net/DTD/sodipodi-0.dtd"
   xmlns:inkscape="http://www.inkscape.org/namespaces/inkscape"
   version="1.1"
   id="Capa_1"
   x="0px"
   y="0px"
   width="97.75px"
   height="97.75px"
   viewBox="0 0 97.75 97.75"
   style="enable-background:new 0 0 97.75 97.75;"
   xml:space="preserve"
   sodipodi:docname="etsy-logo.svg"
   inkscape:version="0.92.5 (2060ec1f9f, 2020-04-08)"><metadata
   id="metadata3847"><rdf:RDF><cc:Work
       rdf:about=""><dc:format>image/svg+xml</dc:format><dc:type
         rdf:resource="http://purl.org/dc/dcmitype/StillImage" /><dc:title></dc:title></cc:Work></rdf:RDF></metadata><defs
   id="defs3845" /><sodipodi:namedview
   pagecolor="#ffffff"
   bordercolor="#666666"
   borderopacity="1"
   objecttolerance="10"
   gridtolerance="10"
   guidetolerance="10"
   inkscape:pageopacity="0"
   inkscape:pageshadow="2"
   inkscape:window-width="1920"
   inkscape:window-height="1023"
   id="namedview3843"
   showgrid="false"
   inkscape:zoom="8.57289"
   inkscape:cx="26.128878"
   inkscape:cy="48.291766"
   inkscape:window-x="1080"
   inkscape:window-y="581"
   inkscape:window-maximized="1"
   inkscape:current-layer="g3810" />
<g
   id="g3810">
	<path
   d="M 48.875,0 C 21.882,0 0,21.883 0,48.875 0,75.867 21.882,97.75 48.875,97.75 75.868,97.75 97.75,75.867 97.75,48.875 97.75,21.883 75.868,0 48.875,0 Z m 29.854,68.146 c -0.556,4.598 -1.133,9.192 -1.649,13.795 -0.19,1.713 -0.125,1.703 -1.881,1.683 C 61.794,83.457 48.39,83.24 34.985,83.165 c -4.803,-0.028 -9.607,0.289 -14.412,0.44 -0.636,0.021 -1.271,0.004 -2.027,0.004 0,-1.336 0,-2.629 0,-4.129 1.713,-0.338 3.529,-0.674 5.334,-1.063 0.742,-0.16 1.478,-0.392 2.181,-0.674 1.061,-0.427 1.727,-1.216 1.88,-2.38 0.071,-0.547 0.179,-1.096 0.184,-1.644 0.092,-10.002 0.218,-20.003 0.232,-30.004 0.009,-6.213 -0.15,-12.425 -0.252,-18.636 -0.057,-3.517 -0.988,-4.611 -4.417,-5.266 -1.457,-0.277 -2.93,-0.497 -4.372,-0.833 -0.348,-0.083 -0.843,-0.506 -0.871,-0.81 -0.104,-1.133 -0.041,-2.279 -0.041,-3.516 19.228,0.32 38.347,1.13 57.646,-0.536 -0.404,6.527 -0.809,13.066 -1.221,19.722 -1.169,0 -2.239,0.093 -3.277,-0.049 -0.367,-0.052 -0.828,-0.62 -0.955,-1.04 -0.588,-1.948 -1.023,-3.943 -1.613,-5.892 -0.346,-1.132 -0.812,-2.241 -1.346,-3.299 -1.207,-2.395 -3.019,-3.681 -5.888,-3.632 -6.896,0.121 -13.794,0.037 -20.69,0.041 -1.754,0.002 -1.806,0.06 -1.808,1.778 -0.01,7.748 -0.016,15.497 -0.022,23.244 -0.002,0.423 0,0.846 0,1.378 3.049,0 5.932,0.048 8.813,-0.018 1.867,-0.041 3.731,-0.225 5.595,-0.379 2.549,-0.211 3.455,-0.955 4.096,-3.415 0.48,-1.846 0.91,-3.705 1.326,-5.567 0.164,-0.734 0.498,-1.072 1.303,-1.015 1.014,0.072 2.037,0.018 3.199,0.018 0,0.677 0.006,1.284 0,1.894 -0.062,7.271 -0.141,14.542 -0.164,21.813 -0.004,0.967 -0.228,1.352 -1.266,1.357 -3.055,0.022 -3.053,0.063 -3.773,-2.92 -0.26,-1.072 -0.521,-2.146 -0.803,-3.211 -0.647,-2.455 -2.479,-3.359 -4.783,-3.435 -4.335,-0.146 -8.676,-0.188 -13.015,-0.271 -0.118,-0.002 -0.237,0.063 -0.47,0.125 -0.021,0.481 -0.063,0.979 -0.064,1.476 -0.01,6.472 -0.016,12.942 -0.018,19.413 -0.003,4.021 1.512,5.972 5.546,6.086 6.204,0.178 12.423,0.049 18.629,-0.141 3.754,-0.113 6.325,-2.312 7.935,-5.58 1.312,-2.666 2.512,-5.392 3.621,-8.146 0.49,-1.221 1.129,-1.787 2.451,-1.584 0.573,0.09 1.174,0.015 1.98,0.015 -0.227,1.861 -0.434,3.561 -0.639,5.262 z"
   id="path3808"
   inkscape:connector-curvature="0"
   style="fill:#fffafa;fill-opacity:0;stroke:#000000;stroke-opacity:1" />
<path
   style="fill:#fffafa;fill-opacity:0;stroke:#000000;stroke-width:0.11664678;stroke-opacity:1"
   d="M 46.087142,97.111484 C 27.703042,96.012815 11.646204,84.698842 4.3876569,67.729183 -1.9387638,52.938729 -0.3303893,35.589029 8.6097537,22.184994 12.179068,16.83349 16.818963,12.193285 22.174553,8.6192899 37.269653,-1.4542636 57.040442,-2.1264759 72.810941,6.8976388 89.870977,16.659646 99.359296,35.810037 96.766042,55.246514 94.160072,74.778306 79.78174,90.945325 60.784636,95.704063 c -4.904098,1.228468 -9.81806,1.699025 -14.697494,1.407421 z M 24.682458,84.001881 c 8.392843,-0.357015 11.373661,-0.352208 42.057093,0.06783 9.033564,0.123665 9.713427,0.119269 10.069974,-0.06511 0.215268,-0.11132 0.450632,-0.361122 0.538586,-0.571625 0.08592,-0.205644 0.293394,-1.553803 0.461044,-2.995907 0.167652,-1.442105 0.724767,-6.080385 1.238038,-10.307287 0.513269,-4.226902 0.918433,-7.69751 0.900366,-7.712462 -0.01807,-0.01495 -0.796794,-0.0545 -1.730502,-0.08789 -2.968363,-0.10615 -2.908066,-0.161665 -4.886875,4.499315 -1.076547,2.535752 -2.482309,5.519124 -3.086907,6.551173 -0.637661,1.088487 -2.246387,2.708668 -3.218036,3.240953 -1.390879,0.761944 -2.094303,0.907867 -5.015812,1.040509 -4.072306,0.184892 -17.611791,0.181245 -18.546838,-0.005 -1.487276,-0.296233 -2.424098,-0.892068 -2.964925,-1.885747 -0.723372,-1.329073 -0.693253,-0.833327 -0.740411,-12.186481 -0.02372,-5.70986 -0.0096,-10.705231 0.03132,-11.100826 l 0.07444,-0.719261 2.937094,0.05501 c 8.811718,0.165044 10.83662,0.252304 11.639343,0.501574 0.8793,0.273049 1.690192,0.910332 2.144304,1.685215 0.171761,0.293087 0.566437,1.594626 0.98636,3.252764 0.756654,2.987773 0.972279,3.542013 1.533472,3.941617 0.492826,0.350924 2.259753,0.542792 3.344014,0.363125 0.920521,-0.152536 1.249955,-0.425476 1.412141,-1.169985 0.07267,-0.333596 0.146,-5.241859 0.190741,-12.767546 l 0.07268,-12.225615 -2.34919,0.03603 -2.349192,0.03603 -0.385016,0.420391 c -0.333453,0.364091 -0.435288,0.637475 -0.760389,2.041319 -1.167436,5.041209 -1.451523,5.927647 -2.111088,6.587213 -0.923963,0.923962 -2.952161,1.155541 -10.853661,1.239264 l -5.55503,0.05886 0.05829,-12.580594 c 0.03206,-6.91933 0.08224,-12.606844 0.111513,-12.638922 0.101524,-0.111253 22.59509,-0.103417 23.242179,0.0081 1.736545,0.29926 2.985315,1.342956 4.009564,3.351112 0.828745,1.624844 1.20398,2.715581 2.126648,6.181745 0.798867,3.001086 0.861843,3.182033 1.260587,3.622054 0.498504,0.550107 0.771554,0.609843 2.778905,0.607946 1.068753,-0.001 1.914576,-0.04999 1.953597,-0.113123 0.08419,-0.136224 1.35356,-20.632302 1.28203,-20.700526 -0.02803,-0.02673 -0.549626,-0.0017 -1.159105,0.05557 -1.633466,0.153558 -7.87989,0.541288 -11.489708,0.71319 -4.148673,0.197565 -26.174365,0.200445 -35.052357,0.0046 -3.624798,-0.07997 -7.587873,-0.158705 -8.806831,-0.17497 l -2.216289,-0.02957 -0.03668,1.341438 c -0.05862,2.143759 0.05155,2.975209 0.455122,3.434851 0.186279,0.212159 0.483339,0.44566 0.660134,0.518891 0.176796,0.07323 1.528682,0.362736 3.004192,0.643341 1.475509,0.280607 2.993429,0.627928 3.373155,0.771826 1.004605,0.380698 1.647477,1.020862 1.923893,1.915789 0.295719,0.957431 0.337865,1.984784 0.488323,11.903697 0.141802,9.348301 -0.04154,38.194773 -0.253929,39.951521 -0.283821,2.347636 -0.824163,2.683167 -6.001732,3.726838 -1.601929,0.32291 -3.030702,0.614801 -3.175053,0.648647 -0.262349,0.06151 -0.262455,0.06257 -0.262455,2.625544 v 2.564007 l 1.3706,-0.0021 c 0.753829,-0.0012 3.129049,-0.07691 5.278266,-0.168329 z"
   id="path5323"
   inkscape:connector-curvature="0" /><path
   style="fill:#fffafa;fill-opacity:0;stroke:#000000;stroke-width:0.11664678;stroke-opacity:1"
   d="m 65.100567,82.946471 c -5.324926,-0.08285 -15.219489,-0.187938 -21.987918,-0.233523 -10.398403,-0.07003 -12.988265,-0.05375 -16.705585,0.105009 -2.419643,0.10334 -5.058842,0.18789 -5.864887,0.18789 h -1.465535 l 0.03255,-1.536125 0.03255,-1.536126 2.7412,-0.551984 c 1.507659,-0.303592 3.077758,-0.665574 3.489107,-0.804405 2.111339,-0.712582 2.852273,-1.520231 3.159615,-3.444116 0.291355,-1.823808 0.45289,-33.018694 0.231105,-44.629904 -0.142023,-7.435395 -0.205308,-8.037298 -0.963145,-9.16052 -0.483381,-0.716439 -1.279733,-1.280108 -2.292736,-1.622831 -0.442814,-0.149815 -1.977386,-0.490761 -3.410161,-0.75766 -1.432774,-0.266898 -2.723149,-0.559979 -2.8675,-0.651292 -0.249281,-0.15769 -0.262455,-0.239077 -0.262455,-1.621419 v -1.455396 l 0.904013,0.0024 c 0.497207,0.0013 4.499649,0.07883 8.894316,0.17222 21.196754,0.450433 32.918695,0.322586 43.952515,-0.479372 1.430677,-0.103984 2.630303,-0.159992 2.665833,-0.124461 0.03553,0.03553 -0.190995,4.201567 -0.50339,9.257857 l -0.56799,9.193256 h -1.375698 c -1.304301,0 -1.386325,-0.01411 -1.580478,-0.271795 -0.11263,-0.149487 -0.45895,-1.225554 -0.769601,-2.391259 -0.874268,-3.280656 -1.315357,-4.694741 -1.890685,-6.061345 -1.21101,-2.876564 -2.675986,-4.354513 -4.878149,-4.921349 -0.608574,-0.156647 -2.219604,-0.179819 -12.348831,-0.17762 -12.752133,0.0028 -12.206606,-0.02662 -12.568255,0.677066 -0.134852,0.262389 -0.167179,2.539108 -0.193078,13.597714 l -0.03111,13.282557 5.571829,-0.05945 c 7.36718,-0.07861 10.639756,-0.355585 11.902404,-1.007352 0.635259,-0.327915 1.253422,-1.022397 1.615196,-1.814609 0.17468,-0.382513 0.624391,-1.957244 0.999361,-3.499403 0.374969,-1.542159 0.746981,-3.06638 0.826693,-3.387159 l 0.144932,-0.583234 1.666078,-0.03239 1.666077,-0.03239 -0.06224,2.715269 c -0.03423,1.493398 -0.09146,6.807318 -0.12716,11.80871 -0.04678,6.552169 -0.102102,9.13824 -0.197967,9.25375 -0.102304,0.123268 -0.440269,0.151378 -1.462676,0.121655 -1.269052,-0.03689 -1.341652,-0.05264 -1.593431,-0.345636 -0.191798,-0.223194 -0.449178,-1.049738 -0.94299,-3.028301 -0.454867,-1.822517 -0.809207,-2.981204 -1.07284,-3.508177 -0.660804,-1.320869 -1.800574,-2.134075 -3.485031,-2.48651 -0.561768,-0.117536 -2.540372,-0.204206 -6.862888,-0.300615 -7.269067,-0.162129 -8.183229,-0.143084 -8.415959,0.175329 -0.249709,0.341642 -0.245917,22.137181 0.0041,23.44379 0.437243,2.285269 1.730077,3.655506 3.999504,4.238962 0.717943,0.184579 1.606792,0.201697 9.945179,0.191539 9.678218,-0.01179 11.597247,-0.0887 13.010507,-0.521408 2.748555,-0.841547 4.5574,-2.58131 6.237889,-5.999656 0.994616,-2.023185 2.123175,-4.535631 3.053103,-6.796944 0.323706,-0.787155 0.734704,-1.587644 0.91333,-1.778863 0.318918,-0.341406 0.345997,-0.347671 1.502761,-0.347671 1.094044,0 1.177991,0.01637 1.177991,0.229677 0,0.126323 -0.417957,3.682591 -0.928793,7.902819 -0.510835,4.220228 -1.019547,8.473664 -1.130469,9.452081 -0.110922,0.978417 -0.240527,1.841803 -0.288012,1.918636 -0.123589,0.199971 -0.50528,0.201128 -11.242075,0.03407 z"
   id="path5325"
   inkscape:connector-curvature="0" /></g>
<g
   id="g3812">
</g>
<g
   id="g3814">
</g>
<g
   id="g3816">
</g>
<g
   id="g3818">
</g>
<g
   id="g3820">
</g>
<g
   id="g3822">
</g>
<g
   id="g3824">
</g>
<g
   id="g3826">
</g>
<g
   id="g3828">
</g>
<g
   id="g3830">
</g>
<g
   id="g3832">
</g>
<g
   id="g3834">
</g>
<g
   id="g3836">
</g>
<g
   id="g3838">
</g>
<g
   id="g3840">
</g>
</svg>